<svg preserveAspectRatio="none" width="100%" height="100%" overflow="visible" style="display: block;" viewBox="0 0 430.333 5.33333" fill="none" xmlns="http://www.w3.org/2000/svg">
<path id="Line 6" d="M0 2.66667C0 4.13943 1.19391 5.33333 2.66667 5.33333C4.13943 5.33333 5.33333 4.13943 5.33333 2.66667C5.33333 1.19391 4.13943 0 2.66667 0C1.19391 0 0 1.19391 0 2.66667ZM425 2.66667C425 4.13943 426.194 5.33333 427.667 5.33333C429.139 5.33333 430.333 4.13943 430.333 2.66667C430.333 1.19391 429.139 0 427.667 0C426.194 0 425 1.19391 425 2.66667ZM2.66667 2.66667V3.16667H427.667V2.66667V2.16667H2.66667V2.66667Z" fill="var(--stroke-0, #BAE8FA)"/>
</svg>
