<svg preserveAspectRatio="none" width="100%" height="100%" overflow="visible" style="display: block;" viewBox="0 0 542.333 5.33333" fill="none" xmlns="http://www.w3.org/2000/svg">
<path id="Line 5" d="M0 2.66667C0 4.13943 1.19391 5.33333 2.66667 5.33333C4.13943 5.33333 5.33333 4.13943 5.33333 2.66667C5.33333 1.19391 4.13943 0 2.66667 0C1.19391 0 0 1.19391 0 2.66667ZM537 2.66667C537 4.13943 538.194 5.33333 539.667 5.33333C541.139 5.33333 542.333 4.13943 542.333 2.66667C542.333 1.19391 541.139 0 539.667 0C538.194 0 537 1.19391 537 2.66667ZM2.66667 2.66667V3.16667H539.667V2.66667V2.16667H2.66667V2.66667Z" fill="var(--stroke-0, #DBC2FF)"/>
</svg>
