<svg preserveAspectRatio="none" width="100%" height="100%" overflow="visible" style="display: block;" viewBox="0 0 485.333 5.33333" fill="none" xmlns="http://www.w3.org/2000/svg">
<path id="Line 1" d="M0 2.66667C0 4.13943 1.19391 5.33333 2.66667 5.33333C4.13943 5.33333 5.33333 4.13943 5.33333 2.66667C5.33333 1.19391 4.13943 0 2.66667 0C1.19391 0 0 1.19391 0 2.66667ZM480 2.66667C480 4.13943 481.194 5.33333 482.667 5.33333C484.139 5.33333 485.333 4.13943 485.333 2.66667C485.333 1.19391 484.139 0 482.667 0C481.194 0 480 1.19391 480 2.66667ZM2.66667 2.66667V3.16667H482.667V2.66667V2.16667H2.66667V2.66667Z" fill="var(--stroke-0, #BAE8FA)"/>
</svg>
