<svg preserveAspectRatio="none" width="100%" height="100%" overflow="visible" style="display: block;" viewBox="0 0 594.834 5.33333" fill="none" xmlns="http://www.w3.org/2000/svg">
<path id="Line 2" d="M0 2.66667C0 4.13943 1.19391 5.33333 2.66667 5.33333C4.13943 5.33333 5.33333 4.13943 5.33333 2.66667C5.33333 1.19391 4.13943 0 2.66667 0C1.19391 0 0 1.19391 0 2.66667ZM589.5 2.66667C589.5 4.13943 590.694 5.33333 592.167 5.33333C593.64 5.33333 594.834 4.13943 594.834 2.66667C594.834 1.19391 593.64 0 592.167 0C590.694 0 589.5 1.19391 589.5 2.66667ZM2.66667 2.66667V3.16667H592.167V2.66667V2.16667H2.66667V2.66667Z" fill="var(--stroke-0, #BAE8FA)"/>
</svg>
