<svg preserveAspectRatio="none" width="100%" height="100%" overflow="visible" style="display: block;" viewBox="0 0 644.333 5.33333" fill="none" xmlns="http://www.w3.org/2000/svg">
<path id="Line 4" d="M0 2.66667C0 4.13943 1.19391 5.33333 2.66667 5.33333C4.13943 5.33333 5.33333 4.13943 5.33333 2.66667C5.33333 1.19391 4.13943 0 2.66667 0C1.19391 0 0 1.19391 0 2.66667ZM639 2.66667C639 4.13943 640.194 5.33333 641.667 5.33333C643.139 5.33333 644.333 4.13943 644.333 2.66667C644.333 1.19391 643.139 0 641.667 0C640.194 0 639 1.19391 639 2.66667ZM2.66667 2.66667V3.16667H641.667V2.66667V2.16667H2.66667V2.66667Z" fill="var(--stroke-0, #DBC2FF)"/>
</svg>
